Lady Gaga feat. Beyonce - Telephone 

Music Video .mp4

*********************************************************
General

Complete name                   Lady Gaga feat. Beyonce - Telephone.mp4
Format                           : MPEG-4
Format profile                   : Base Media / Version 2
Codec ID                         : mp42
File size                        : 37.8 MiB
Duration                         : 4mn 22s
Overall bit rate                 : 1 208 Kbps
Encoded date                     : UTC 2010-03-16 10:35:11
Tagged date                      : UTC 2010-03-16 10:35:16
Writing application              : mp4creator 1.4.4

Video

ID                               : 1
Format                           : AVC
Format/Info                      : Advanced Video Codec
Format profile                   : Baseline@L3.0
Format settings, CABAC           : No
Format settings, ReFrames        : 2 frames
Codec ID                         : avc1
Codec ID/Info                    : Advanced Video Coding
Duration                         : 4mn 22s
Bit rate mode                    : Variable
Bit rate                         : 1 017 Kbps
Width                            : 720 pixels
Height                           : 576 pixels
Display aspect ratio             : 5:4
Frame rate mode                  : Constant
Frame rate                       : 25.000 fps
Standard                         : PAL
Resolution                       : 8 bits
Colorimetry                      : 4:2:0
Scan type                        : Progressive
Bits/(Pixel*Frame)               : 0.098
Stream size                      : 31.8 MiB (84%)
Language                         : English
Encoded date                     : UTC 2010-03-16 10:35:11
Tagged date                      : UTC 2010-03-16 10:35:15

Audio

ID                               : 2
Format                           : AAC
Format/Info                      : Advanced Audio Codec
Format version                   : Version 4
Format profile                   : LC
Format settings, SBR             : No
Codec ID                         : 40
Duration                         : 4mn 21s
Bit rate mode                    : Variable
Bit rate                         : 192 Kbps
Maximum bit rate                 : 248 Kbps
Channel(s)                       : 2 channels
Channel positions                : L R
Sampling rate                    : 44.1 KHz
Stream size                      : 5.91 MiB (16%)
Language                         : English
Encoded date                     : UTC 2010-03-16 10:35:16
Tagged date                      : UTC 2010-03-16 10:35:16
*************************************************************


Enjoy ! ;)
